<?xml version="1.0" encoding="utf-8"?>
<!-- Generator: Adobe Illustrator 19.0.0, SVG Export Plug-In . SVG Version: 6.00 Build 0)  -->
<svg version="1.1" id="Layer_1" xmlns="http://www.w3.org/2000/svg" xmlns:xlink="http://www.w3.org/1999/xlink" x="0px" y="0px"
	 viewBox="-36 127.4 538.6 538.6" style="enable-background:new -36 127.4 538.6 538.6;" xml:space="preserve">
<style type="text/css">
	.st0{fill:#4176B6;}
</style>
<g>
	<path class="st0" d="M313.8,389.8c-9.1,21.2-21.5,39.6-37.1,55.2s-33.9,28-54.9,37.1s-43.5,13.7-67.6,13.7s-46.6-4.6-67.6-13.7
		S47.3,460.6,31.7,445s-28-34-37.1-55.2c-9.1-21.2-13.7-43.6-13.7-67.4c0-24.1,4.6-46.6,13.7-67.6s21.5-39.3,37.1-54.9
		s33.9-28,54.9-37.1c21-9.1,43.5-13.7,67.6-13.7s46.6,4.6,67.6,13.7c21,9.1,39.3,21.5,54.9,37.1s28,33.9,37.1,54.9
		s13.7,43.5,13.7,67.6C327.5,346.2,322.9,368.7,313.8,389.8z M154.1,455.3c18.2,0,35.4-3.5,51.5-10.5s30.2-16.5,42.2-28.6
		c12-12,21.6-26.1,28.6-42.2c7-16.1,10.5-33.3,10.5-51.5c0-18.6-3.5-35.9-10.5-52c-7-16.1-16.5-30.1-28.6-42
		c-12-11.9-26.1-21.3-42.2-28.3s-33.3-10.5-51.5-10.5s-35.4,3.5-51.5,10.5s-30.2,16.4-42.2,28.3s-21.6,25.9-28.6,42
		c-7,16.1-10.5,33.4-10.5,52c0,18.2,3.5,35.4,10.5,51.5c7,16.1,16.5,30.2,28.6,42.2c12,12,26.1,21.6,42.2,28.6
		C118.7,451.8,135.9,455.3,154.1,455.3z M469.6,566.6c7.5,7.5,11.2,16.6,11.2,27.3s-3.7,19.7-11.2,26.9L458.4,632
		c-7.5,7.5-16.5,11.2-27.1,11.2s-19.6-3.7-27.1-11.2L267.9,495.3c13-8.5,24.9-18.3,35.6-29.5s20-23.5,27.8-36.9L469.6,566.6z"/>
</g>
</svg>
